<svg width="16" height="17" viewBox="0 0 16 17" fill="none" xmlns="http://www.w3.org/2000/svg">
<g clip-path="url(#clip0_6_756)">
<path d="M15.8883 4.74491C15.8804 4.63896 15.8356 4.53882 15.7614 4.46109L11.9405 0.269309C11.8957 0.220956 11.841 0.182303 11.78 0.155847C11.7189 0.129392 11.6528 0.115723 11.586 0.115723C11.5192 0.115723 11.4531 0.129392 11.3921 0.155847C11.331 0.182303 11.2763 0.220956 11.2316 0.269309L7.41066 4.46109C7.3682 4.50643 7.33534 4.55951 7.31397 4.61726C7.2926 4.67502 7.28314 4.73633 7.28614 4.79766C7.28913 4.85899 7.30451 4.91915 7.33141 4.97467C7.3583 5.03019 7.39617 5.07998 7.44285 5.12119C7.48953 5.1624 7.5441 5.19421 7.60342 5.2148C7.66274 5.23538 7.72565 5.24435 7.78853 5.24116C7.85141 5.23798 7.91302 5.22272 7.96984 5.19626C8.02666 5.16979 8.07756 5.13264 8.11961 5.08695L11.1047 1.80484L11.1047 14.1691C10.5506 14.3628 10.1495 14.8831 10.1495 15.4863C10.1495 16.2525 10.7966 16.8836 11.5823 16.8836C12.368 16.8836 13.0151 16.2525 13.0151 15.4863C13.0151 14.8831 12.614 14.3628 12.0599 14.1691L12.0599 1.80484L15.0524 5.08695C15.1185 5.16056 15.2066 5.21204 15.3043 5.23409C15.402 5.25614 15.5043 5.24765 15.5968 5.2098C15.6893 5.17196 15.7672 5.10669 15.8195 5.02325C15.8718 4.93981 15.8959 4.84242 15.8883 4.74491ZM12.0599 15.4863C12.0599 15.7491 11.8517 15.9521 11.5823 15.9521C11.3129 15.9521 11.1047 15.7491 11.1047 15.4863C11.1047 15.2236 11.3129 15.0206 11.5823 15.0206C11.8517 15.0206 12.0599 15.2236 12.0599 15.4863ZM8.72409 12.197C8.71926 12.1044 8.68623 12.0154 8.62923 11.9412C8.57224 11.8671 8.49386 11.8112 8.40412 11.7808C8.31439 11.7503 8.21737 11.7466 8.12548 11.7702C8.03359 11.7938 7.951 11.8435 7.88827 11.9131L4.89573 15.1953L4.89573 2.83095C5.44979 2.63726 5.85095 2.11695 5.85095 1.51374C5.85095 0.747575 5.20379 0.116484 4.41812 0.116484C3.63245 0.116484 2.98528 0.747575 2.98528 1.51374C2.98528 2.11695 3.38645 2.63726 3.94051 2.83095L3.94051 15.1953L0.955432 11.9131C0.913376 11.8674 0.862479 11.8303 0.805662 11.8038C0.748846 11.7774 0.687227 11.7621 0.624346 11.7589C0.561465 11.7557 0.49856 11.7647 0.43924 11.7853C0.379919 11.8059 0.325353 11.8377 0.278673 11.8789C0.231994 11.9201 0.194118 11.9699 0.167225 12.0254C0.140331 12.0809 0.124947 12.1411 0.121955 12.2024C0.118963 12.2638 0.128424 12.3251 0.149793 12.3828C0.171161 12.4406 0.204018 12.4937 0.246476 12.539L4.06737 16.7308C4.11216 16.7791 4.16684 16.8178 4.2279 16.8442C4.28896 16.8707 4.35503 16.8844 4.42185 16.8844C4.48866 16.8844 4.55474 16.8707 4.6158 16.8442C4.67686 16.8178 4.73154 16.7791 4.77633 16.7308L8.59722 12.539C8.64081 12.4932 8.67451 12.4393 8.69631 12.3806C8.7181 12.3218 8.72755 12.2594 8.72409 12.197ZM4.89573 1.51374C4.89573 1.77649 4.68754 1.9795 4.41812 1.9795C4.14867 1.9795 3.94051 1.77649 3.94051 1.51374C3.94051 1.251 4.14867 1.04799 4.41812 1.04799C4.68754 1.04799 4.89573 1.251 4.89573 1.51374Z" fill="black"/>
</g>
<defs>
<clipPath id="clip0_6_756">
<rect width="17" height="16" fill="white" transform="matrix(0 1 -1 0 16 0)"/>
</clipPath>
</defs>
</svg>
